<svg width="31" height="30" viewBox="0 0 31 30" fill="none" xmlns="http://www.w3.org/2000/svg">
<g clip-path="url(#clip0_835_2131)">
<path d="M13.3736 25.8094C9.91675 25.8094 6.45926 25.8127 3.00243 25.8074C1.75742 25.8055 0.795847 25.0403 0.549726 23.8686C0.507833 23.6683 0.502596 23.4568 0.502596 23.2506C0.499978 16.3592 0.498669 9.46717 0.501942 2.57577C0.502596 1.00478 1.50934 0.00261832 3.0836 0.00196374C9.96519 -0.000654579 16.8468 -0.000654579 23.7284 0.00196374C25.3026 0.00261832 26.31 1.00216 26.3107 2.57511C26.3146 9.45605 26.3146 16.337 26.3107 23.2179C26.31 24.8118 25.3046 25.8081 23.712 25.8087C20.2656 25.8114 16.8199 25.81 13.3736 25.8094ZM14.7966 16.5694C14.7973 16.5694 14.7973 16.5694 14.7979 16.5694C14.7979 15.937 14.8143 15.3041 14.7907 14.6724C14.7796 14.3667 14.8778 14.2868 15.1763 14.2901C16.4193 14.3058 17.6624 14.2934 18.9048 14.298C19.342 14.2999 19.725 14.1749 20.0169 13.8437C20.3966 13.413 20.4934 12.9122 20.2768 12.3827C20.0496 11.8276 19.6143 11.5226 19.0082 11.518C17.7435 11.5082 16.4789 11.5036 15.2143 11.5199C14.8948 11.5239 14.7829 11.4564 14.7888 11.1095C14.8104 9.83439 14.8032 8.55862 14.7901 7.28284C14.7842 6.69045 14.4818 6.26432 13.9404 6.03849C13.4122 5.8179 12.9121 5.90954 12.4775 6.28527C12.1423 6.57459 12.0121 6.95555 12.0127 7.39281C12.016 8.65746 12.0075 9.92211 12.0206 11.1868C12.0232 11.4492 11.9401 11.5206 11.6854 11.518C10.519 11.5062 9.3525 11.5121 8.18539 11.5121C8.05447 11.5121 7.92356 11.5101 7.79264 11.516C6.86772 11.5566 6.26093 12.3591 6.47366 13.2578C6.61767 13.8679 7.15901 14.2881 7.85221 14.294C9.08412 14.3039 10.316 14.2967 11.5486 14.2973C12.0147 14.2973 12.0153 14.298 12.0153 14.7804C12.0153 16.0012 12.0055 17.2226 12.0193 18.4434C12.0284 19.2813 12.6123 19.875 13.3952 19.8841C14.1866 19.8926 14.7809 19.2845 14.7953 18.4336C14.8051 17.8124 14.7966 17.1905 14.7966 16.5694Z" fill="#0EB460"/>
<path d="M16.2512 29.9981C12.3368 29.9987 8.42242 29.9987 4.50738 29.9981C3.83317 29.9981 3.42995 29.7146 3.31278 29.1674C3.19495 28.6176 3.53664 28.0788 4.08322 27.9453C4.2881 27.8956 4.49495 27.9054 4.70179 27.9054C12.3453 27.9047 19.9895 27.9041 27.633 27.9041C27.7528 27.9041 27.8732 27.9015 27.993 27.9034C28.2823 27.908 28.4106 27.7594 28.4061 27.4786C28.4041 27.3693 28.4067 27.2606 28.4067 27.1513C28.4074 19.4973 28.4074 11.8433 28.4093 4.18934C28.4093 3.99427 28.4119 3.79463 28.4486 3.60414C28.5455 3.10535 29.0253 2.74795 29.5208 2.78527C30.0477 2.82454 30.4608 3.23496 30.4942 3.75797C30.502 3.87776 30.5007 3.99755 30.5007 4.11733C30.5007 11.8473 30.5007 19.5778 30.5007 27.3077C30.5007 27.6462 30.4955 27.982 30.3862 28.3093C30.0471 29.3265 29.1582 29.985 28.0604 29.9922C26.4685 30.0033 24.8766 29.9961 23.2846 29.9961C20.9399 29.9974 18.5959 29.9974 16.2512 29.9981Z" fill="#0EB460"/>
<path d="M14.7964 16.5693C14.7964 17.1905 14.8049 17.8124 14.7944 18.4335C14.78 19.2845 14.1857 19.8926 13.3943 19.8841C12.6107 19.8756 12.0275 19.2812 12.0184 18.4434C12.0046 17.2226 12.0144 16.0011 12.0144 14.7803C12.0144 14.2979 12.0138 14.2979 11.5477 14.2973C10.3158 14.2966 9.08388 14.3038 7.8513 14.294C7.1581 14.2881 6.61742 13.8679 6.47276 13.2578C6.26002 12.3591 6.86682 11.5572 7.79174 11.516C7.92265 11.5101 8.05357 11.512 8.18448 11.512C9.35094 11.512 10.5181 11.5061 11.6845 11.5179C11.9398 11.5205 12.0229 11.4492 12.0197 11.1867C12.0066 9.92206 12.0151 8.65742 12.0118 7.39277C12.0105 6.95551 12.1414 6.57455 12.4766 6.28522C12.9112 5.90949 13.4113 5.81785 13.9395 6.03845C14.4815 6.26428 14.7833 6.69106 14.7892 7.2828C14.8016 8.55792 14.8095 9.83435 14.7879 11.1095C14.782 11.4564 14.8939 11.5238 15.2134 11.5199C16.478 11.5035 17.7426 11.5081 19.0073 11.5179C19.6134 11.5225 20.0487 11.8275 20.2759 12.3826C20.4925 12.9115 20.3957 13.4129 20.016 13.8436C19.7241 14.1749 19.3411 14.2992 18.9039 14.2979C17.6608 14.2933 16.4178 14.3058 15.1754 14.2901C14.8769 14.2861 14.7787 14.3667 14.7898 14.6723C14.8127 15.304 14.797 15.937 14.797 16.5693H14.7964Z" fill="#FCFEFD"/>
</g>
<defs>
<clipPath id="clip0_835_2131">
<rect width="30.0007" height="30" fill="white" transform="translate(0.5)"/>
</clipPath>
</defs>
</svg>
